# WaveFront *.obj file (generated by Cheetah3D)

mtllib Cylineder.mtl

g Cylinder
v 0.000000 0.022937 0.000000
v 0.000000 0.022937 0.500000
v 0.103956 0.022937 0.489074
v 0.203368 0.022937 0.456773
v 0.293893 0.022937 0.404509
v 0.371572 0.022937 0.334565
v 0.433013 0.022937 0.250000
v 0.475528 0.022937 0.154508
v 0.497261 0.022937 0.052264
v 0.497261 0.022937 -0.052264
v 0.475528 0.022937 -0.154509
v 0.433013 0.022937 -0.250000
v 0.371572 0.022937 -0.334565
v 0.293893 0.022937 -0.404509
v 0.203368 0.022937 -0.456773
v 0.103956 0.022937 -0.489074
v -0.000000 0.022937 -0.500000
v -0.103956 0.022937 -0.489074
v -0.203368 0.022937 -0.456773
v -0.293893 0.022937 -0.404508
v -0.371572 0.022937 -0.334565
v -0.433013 0.022937 -0.250000
v -0.475528 0.022937 -0.154509
v -0.497261 0.022937 -0.052264
v -0.497261 0.022937 0.052264
v -0.475528 0.022937 0.154509
v -0.433013 0.022937 0.250000
v -0.371572 0.022937 0.334565
v -0.293892 0.022937 0.404509
v -0.203368 0.022937 0.456773
v -0.103956 0.022937 0.489074
v 0.103956 1.022937 0.489074
v 0.000000 1.022937 0.500000
v 0.000000 1.022937 0.000000
v 0.203368 1.022937 0.456773
v 0.293893 1.022937 0.404509
v 0.371572 1.022937 0.334565
v 0.433013 1.022937 0.250000
v 0.475528 1.022937 0.154508
v 0.497261 1.022937 0.052264
v 0.497261 1.022937 -0.052264
v 0.475528 1.022937 -0.154509
v 0.433013 1.022937 -0.250000
v 0.371572 1.022937 -0.334565
v 0.293893 1.022937 -0.404509
v 0.203368 1.022937 -0.456773
v 0.103956 1.022937 -0.489074
v -0.000000 1.022937 -0.500000
v -0.103956 1.022937 -0.489074
v -0.203368 1.022937 -0.456773
v -0.293893 1.022937 -0.404508
v -0.371572 1.022937 -0.334565
v -0.433013 1.022937 -0.250000
v -0.475528 1.022937 -0.154509
v -0.497261 1.022937 -0.052264
v -0.497261 1.022937 0.052264
v -0.475528 1.022937 0.154509
v -0.433013 1.022937 0.250000
v -0.371572 1.022937 0.334565
v -0.293892 1.022937 0.404509
v -0.203368 1.022937 0.456773
v -0.103956 1.022937 0.489074

vt 0.500000 0.500000
vt 0.500000 0.000000
vt 0.603956 0.010926
vt 0.703368 0.043227
vt 0.793893 0.095492
vt 0.871572 0.165435
vt 0.933013 0.250000
vt 0.975528 0.345492
vt 0.997261 0.447736
vt 0.997261 0.552264
vt 0.975528 0.654509
vt 0.933013 0.750000
vt 0.871572 0.834565
vt 0.793893 0.904509
vt 0.703368 0.956773
vt 0.603956 0.989074
vt 0.500000 1.000000
vt 0.396044 0.989074
vt 0.296632 0.956773
vt 0.206107 0.904508
vt 0.128428 0.834565
vt 0.066987 0.750000
vt 0.024472 0.654509
vt 0.002739 0.552264
vt 0.002739 0.447736
vt 0.024472 0.345491
vt 0.066987 0.250000
vt 0.128428 0.165435
vt 0.206108 0.095491
vt 0.296632 0.043227
vt 0.396044 0.010926
vt 0.000000 0.000000
vt 0.000000 1.000000
vt 0.033333 1.000000
vt 0.033333 0.000000
vt 0.066667 1.000000
vt 0.066667 0.000000
vt 0.100000 1.000000
vt 0.100000 0.000000
vt 0.133333 1.000000
vt 0.133333 0.000000
vt 0.166667 1.000000
vt 0.166667 0.000000
vt 0.200000 1.000000
vt 0.200000 0.000000
vt 0.233333 1.000000
vt 0.233333 0.000000
vt 0.266667 1.000000
vt 0.266667 0.000000
vt 0.300000 1.000000
vt 0.300000 0.000000
vt 0.333333 1.000000
vt 0.333333 0.000000
vt 0.366667 1.000000
vt 0.366667 0.000000
vt 0.400000 1.000000
vt 0.400000 0.000000
vt 0.433333 1.000000
vt 0.433333 0.000000
vt 0.466667 1.000000
vt 0.466667 0.000000
vt 0.500000 1.000000
vt 0.533333 1.000000
vt 0.533333 0.000000
vt 0.566667 1.000000
vt 0.566667 0.000000
vt 0.600000 1.000000
vt 0.600000 0.000000
vt 0.633333 1.000000
vt 0.633333 0.000000
vt 0.666667 1.000000
vt 0.666667 0.000000
vt 0.700000 1.000000
vt 0.700000 0.000000
vt 0.733333 1.000000
vt 0.733333 0.000000
vt 0.766667 1.000000
vt 0.766667 0.000000
vt 0.800000 1.000000
vt 0.800000 0.000000
vt 0.833333 1.000000
vt 0.833333 0.000000
vt 0.866667 1.000000
vt 0.866667 0.000000
vt 0.900000 1.000000
vt 0.900000 0.000000
vt 0.933333 1.000000
vt 0.933333 0.000000
vt 0.966667 1.000000
vt 0.966667 0.000000
vt 1.000000 1.000000
vt 1.000000 0.000000

vn 0.000000 -1.000000 0.000000
vn 0.000000 1.000000 0.000000
vn -0.000000 -0.000000 1.000000
vn 0.207912 0.000000 0.978148
vn 0.406737 -0.000000 0.913545
vn 0.587785 -0.000000 0.809017
vn 0.743145 0.000000 0.669131
vn 0.866025 0.000000 0.500000
vn 0.951057 0.000000 0.309017
vn 0.994522 0.000000 0.104528
vn 0.994522 0.000000 -0.104529
vn 0.951056 0.000000 -0.309017
vn 0.866025 -0.000000 -0.500000
vn 0.743145 -0.000000 -0.669131
vn 0.587785 0.000000 -0.809017
vn 0.406737 0.000000 -0.913545
vn 0.207912 -0.000000 -0.978148
vn -0.000000 -0.000000 -1.000000
vn -0.207912 0.000000 -0.978148
vn -0.406737 0.000000 -0.913545
vn -0.587785 -0.000000 -0.809017
vn -0.743145 -0.000000 -0.669130
vn -0.866025 -0.000000 -0.500000
vn -0.951057 0.000000 -0.309017
vn -0.994522 0.000000 -0.104528
vn -0.994522 0.000000 0.104529
vn -0.951056 0.000000 0.309017
vn -0.866025 0.000000 0.500000
vn -0.743145 0.000000 0.669131
vn -0.587785 0.000000 0.809017
vn -0.406736 0.000000 0.913546
vn -0.207912 -0.000000 0.978148

usemtl Red
f 3/3/1 2/2/1 1/1/1
f 4/4/1 3/3/1 1/1/1
f 5/5/1 4/4/1 1/1/1
f 6/6/1 5/5/1 1/1/1
f 7/7/1 6/6/1 1/1/1
f 8/8/1 7/7/1 1/1/1
f 9/9/1 8/8/1 1/1/1
f 10/10/1 9/9/1 1/1/1
f 11/11/1 10/10/1 1/1/1
f 12/12/1 11/11/1 1/1/1
f 13/13/1 12/12/1 1/1/1
f 14/14/1 13/13/1 1/1/1
f 15/15/1 14/14/1 1/1/1
f 16/16/1 15/15/1 1/1/1
f 17/17/1 16/16/1 1/1/1
f 18/18/1 17/17/1 1/1/1
f 19/19/1 18/18/1 1/1/1
f 20/20/1 19/19/1 1/1/1
f 21/21/1 20/20/1 1/1/1
f 22/22/1 21/21/1 1/1/1
f 23/23/1 22/22/1 1/1/1
f 24/24/1 23/23/1 1/1/1
f 25/25/1 24/24/1 1/1/1
f 26/26/1 25/25/1 1/1/1
f 27/27/1 26/26/1 1/1/1
f 28/28/1 27/27/1 1/1/1
f 29/29/1 28/28/1 1/1/1
f 30/30/1 29/29/1 1/1/1
f 31/31/1 30/30/1 1/1/1
f 2/2/1 31/31/1 1/1/1
f 34/1/2 33/2/2 32/3/2
f 34/1/2 32/3/2 35/4/2
f 34/1/2 35/4/2 36/5/2
f 34/1/2 36/5/2 37/6/2
f 34/1/2 37/6/2 38/7/2
f 34/1/2 38/7/2 39/8/2
f 34/1/2 39/8/2 40/9/2
f 34/1/2 40/9/2 41/10/2
f 34/1/2 41/10/2 42/11/2
f 34/1/2 42/11/2 43/12/2
f 34/1/2 43/12/2 44/13/2
f 34/1/2 44/13/2 45/14/2
f 34/1/2 45/14/2 46/15/2
f 34/1/2 46/15/2 47/16/2
f 34/1/2 47/16/2 48/17/2
f 34/1/2 48/17/2 49/18/2
f 34/1/2 49/18/2 50/19/2
f 34/1/2 50/19/2 51/20/2
f 34/1/2 51/20/2 52/21/2
f 34/1/2 52/21/2 53/22/2
f 34/1/2 53/22/2 54/23/2
f 34/1/2 54/23/2 55/24/2
f 34/1/2 55/24/2 56/25/2
f 34/1/2 56/25/2 57/26/2
f 34/1/2 57/26/2 58/27/2
f 34/1/2 58/27/2 59/28/2
f 34/1/2 59/28/2 60/29/2
f 34/1/2 60/29/2 61/30/2
f 34/1/2 61/30/2 62/31/2
f 34/1/2 62/31/2 33/2/2
f 3/35/4 32/34/4 33/33/3 2/32/3
f 4/37/5 35/36/5 32/34/4 3/35/4
f 5/39/6 36/38/6 35/36/5 4/37/5
f 6/41/7 37/40/7 36/38/6 5/39/6
f 7/43/8 38/42/8 37/40/7 6/41/7
f 8/45/9 39/44/9 38/42/8 7/43/8
f 9/47/10 40/46/10 39/44/9 8/45/9
f 10/49/11 41/48/11 40/46/10 9/47/10
f 11/51/12 42/50/12 41/48/11 10/49/11
f 12/53/13 43/52/13 42/50/12 11/51/12
f 13/55/14 44/54/14 43/52/13 12/53/13
f 14/57/15 45/56/15 44/54/14 13/55/14
f 15/59/16 46/58/16 45/56/15 14/57/15
f 16/61/17 47/60/17 46/58/16 15/59/16
f 17/2/18 48/62/18 47/60/17 16/61/17
f 18/64/19 49/63/19 48/62/18 17/2/18
f 19/66/20 50/65/20 49/63/19 18/64/19
f 20/68/21 51/67/21 50/65/20 19/66/20
f 21/70/22 52/69/22 51/67/21 20/68/21
f 22/72/23 53/71/23 52/69/22 21/70/22
f 23/74/24 54/73/24 53/71/23 22/72/23
f 24/76/25 55/75/25 54/73/24 23/74/24
f 25/78/26 56/77/26 55/75/25 24/76/25
f 26/80/27 57/79/27 56/77/26 25/78/26
f 27/82/28 58/81/28 57/79/27 26/80/27
f 28/84/29 59/83/29 58/81/28 27/82/28
f 29/86/30 60/85/30 59/83/29 28/84/29
f 30/88/31 61/87/31 60/85/30 29/86/30
f 31/90/32 62/89/32 61/87/31 30/88/31
f 2/92/3 33/91/3 62/89/32 31/90/32

usemtl default

